<?xml version="1.0" encoding="UTF-8"?>
<svg id="Layer_1" xmlns="http://www.w3.org/2000/svg" version="1.1" viewBox="0 0 400 220">
  <!-- Generator: Adobe Illustrator 29.8.2, SVG Export Plug-In . SVG Version: 2.1.1 Build 3)  -->
  <defs>
    <style>
      .st0 {
        fill: #e04c5e;
      }

      .st1 {
        fill: #fffefe;
      }

      .st2 {
        fill: #645438;
      }

      .st3 {
        fill: #f4e4ce;
      }
    </style>
  </defs>
  <g>
    <path class="st1" d="M186.58,21.7c1.67-2.49,3.77-4.74,6.41-6.21-1.84,2.35-4.02,4.42-6.41,6.21Z"/>
    <path class="st1" d="M209.94,57.02c7.09-1.7,13.25-5.99,20.45-7.3-.67,2.28-1.13,5.04-3.63,6.03-10.48,5.37-22.21,8.38-33.97,8.92,5.48-3.05,10.99-6.21,17.15-7.65Z"/>
    <path class="st1" d="M225.43,60.33c2.65-1.62,5.4-3.07,8.19-4.44.01,1.2.04,2.41-.03,3.61-2.53,1.3-5.43.94-8.16.83Z"/>
    <path class="st1" d="M200.95,82.7c4.97-.76,9.92-1.59,14.94-1.99l-.08,3.2c-14.06,6.82-30.32,4.32-45.07,1.45,10.05-1.13,20.18-1.37,30.21-2.66Z"/>
  </g>
  <g>
    <path class="st0" d="M194.87,11.21c-.68-2.48-1.83-5.25.01-7.52,1.76,1.64,3.26,3.64,5.36,4.89,4.86.56,10.1-.12,14.49,2.56,8.74,4.49,13.18,14.6,12.78,24.14,8.85.39,18.31,4.25,22.62,12.43,2.29,4.19,1.65,9.09.18,13.43,7.92,2,16.18,6.1,19.65,13.95,2.01,3.73,1.75,8.1.49,12.02,2.32,1.7,4.96,3.42,6.01,6.24.97,2.46.4,5.13-.13,7.62-3.23,12.91-6.52,25.8-9.64,38.74-1.22,5.73-6.75,10.26-12.66,10.08-34.7-.05-69.41-.01-104.12-.01-5.32.02-10.39-3.78-11.74-8.95-3.2-12.97-6.49-25.91-9.71-38.88-.62-2.83-1.56-5.88-.27-8.67.91-2.82,3.54-4.45,5.77-6.14-1.05-4.53-1.15-9.56,1.55-13.57,3.58-6.55,10.92-10.12,18.25-10.05-.22-5.79,1.96-11.59,6.54-15.27,5.46-4.9,12.63-7.14,19.64-8.76-.95-7.08-.64-14.83,3.75-20.81,2.54-3.93,6.79-6.19,11.18-7.47ZM186.58,21.7c2.39-1.79,4.57-3.86,6.41-6.21-2.64,1.47-4.74,3.72-6.41,6.21ZM201.74,17.85c.68,1.19,1.35,2.4,2.21,3.48,1.62.03,3.24-.2,4.85-.39-.51-1.61-1.03-3.22-1.56-4.82-1.83.59-3.66,1.18-5.5,1.73ZM209.36,25.53c1.52,4.79,3.77,9.37,4.44,14.42.39-.16,1.16-.47,1.55-.63,1.88-4.85,1.59-10.18-.03-15.06-2.02.22-4.18.13-5.96,1.27ZM226.55,41.79c-6.37,8.93-18.27,11.33-28.6,10.91-6-.02-11.74-2.67-15.77-7.08-6.91,1.76-14.53,3.48-19.4,9.12-2.25,2.58-3.92,6.94-1.27,9.82,3,3,7.35,4.05,11.39,4.8,15.29,2.43,30.94,1.39,46.12-1.3,1.81-.15,4.04-1.11,5.45.57.6,1.49.46,3.17-.07,4.66-3.71,1.56-7.77,1.92-11.7,2.49-12.99,1.42-26.14,1.99-39.13.37-5.29-.71-10.59-2.19-14.92-5.43-5.08-.25-10.97-.83-15.04,2.89-2.91,2.26-3.94,5.91-4.39,9.41,17.86,7.64,37.55,9.74,56.8,10.23,23.36.38,47.25-1.71,69.21-10.13-.42-2.96-.73-6.18-2.93-8.44-4.06-5.25-11.14-5.78-16.37-9.31-4.6,2.82-9.51,5.63-14.98,6.15-1.73-1.34-1.67-3.65-1.25-5.59,4.92-2.68,11.51-3.28,14.64-8.52,2.42-3.69-.24-8.2-3.19-10.67-3.92-3.71-9.48-4.42-14.6-4.95ZM138.48,92.67c-2.21.51-5.11,2.32-4.16,4.99,3.04,13.17,6.54,26.25,9.6,39.43.42,2.77,2.15,5.46,5.04,6.08,3.63.53,7.33.15,10.99.22,31.02.03,62.03-.02,93.05.02,2.37.09,5.09-.65,6.34-2.84,1.19-2.5,1.69-5.26,2.39-7.92,2.91-12.37,6.2-24.65,9-37.05-3.01-3.33-8.81-4.65-11.91-.73-2.7,5.11-1.58,11.5-4.41,16.52-1.9.58-4.64.88-5.7-1.23.21-4.64,1.48-9.15,1.71-13.79-3.46.39-6.98.72-10.32,1.76-1.99.65-2.29,3.05-2.71,4.8-1.47,9.88-2.87,19.78-4.12,29.7-.34,1.45-.32,3.21-1.44,4.32-1.21.38-2.45.68-3.71.9-.43-.69-1.29-2.08-1.71-2.77,1.27-11.38,3.11-22.69,4.23-34.08.43-1.45-1.22-2.62-2.52-2.35-3.13.5-6.5.5-9.33,2.06-3.83,2.59-2.55,7.71-3.6,11.57-.96,1.18-2.71,1.18-4.02,1.78-.62-.54-1.86-1.63-2.49-2.17.02-3.78.11-7.56.19-11.34-4.51.09-9.01.07-13.52.13-.25,11.78,1.8,23.51,1.17,35.28-.5,2.1-3.24,1.87-4.86,1.49-1.72-1.66-1.31-4.28-1.7-6.43-.54-8.63-.62-17.3-1.62-25.89-.28-2.34-1.75-4.72-4.22-5.16-3.48-.7-7.07-.55-10.61-.59,1.6,11.58,3.68,23.11,4.94,34.72.96,4.02-6.06,5-6.23.85-1.81-10.59-3.28-21.25-4.94-31.87-.5-1.68-.45-4.1-2.37-4.85-3.22-1.22-6.73-1.68-10.16-1.76-1.15,5.54,1.12,11.02,1.72,16.51.87,7.38,2.98,14.63,3.22,22.07.12,2.63-3.15,2.99-5.07,2.45-.95-1.32-1.29-2.92-1.59-4.47-1.98-12.02-4.06-24.02-6.21-36-.55-3.73-5.06-5.31-8.34-4.36ZM191.38,95.22c-.69.96-1.32,1.95-1.9,2.98,2.13-.49,4.2-1.18,6.11-2.25-1.39-.35-2.79-.59-4.21-.73Z"/>
    <path class="st0" d="M248.67,113.39c1.96.32,4.22.05,5.77,1.55-.42,6.96-1.6,13.93-3.08,20.75-.36,2.31-2.82,2.27-4.58,1.64-2.02-.94-1.29-3.39-1.29-5.15.83-6.29,1.5-12.65,3.18-18.79Z"/>
    <path class="st0" d="M208.54,120.15c2.25-1.55,4.68-1.63,6.92,0-.36,5.83-.45,11.74-1.84,17.44-1.73-.03-3.45-.1-5.17-.19-.57-5.74-.11-11.51.09-17.25Z"/>
  </g>
  <g>
    <path class="st3" d="M201.74,17.85c1.84-.55,3.67-1.14,5.5-1.73.53,1.6,1.05,3.21,1.56,4.82-1.61.19-3.23.42-4.85.39-.86-1.08-1.53-2.29-2.21-3.48Z"/>
    <path class="st3" d="M209.36,25.53c1.78-1.14,3.94-1.05,5.96-1.27,1.62,4.88,1.91,10.21.03,15.06-.39.16-1.16.47-1.55.63-.67-5.05-2.92-9.63-4.44-14.42Z"/>
    <path class="st3" d="M226.55,41.79c5.12.53,10.68,1.24,14.6,4.95,2.95,2.47,5.61,6.98,3.19,10.67-3.13,5.24-9.72,5.84-14.64,8.52-.42,1.94-.48,4.25,1.25,5.59,5.47-.52,10.38-3.33,14.98-6.15,5.23,3.53,12.31,4.06,16.37,9.31,2.2,2.26,2.51,5.48,2.93,8.44-21.96,8.42-45.85,10.51-69.21,10.13-19.25-.49-38.94-2.59-56.8-10.23.45-3.5,1.48-7.15,4.39-9.41,4.07-3.72,9.96-3.14,15.04-2.89,4.33,3.24,9.63,4.72,14.92,5.43,12.99,1.62,26.14,1.05,39.13-.37,3.93-.57,7.99-.93,11.7-2.49.53-1.49.67-3.17.07-4.66-1.41-1.68-3.64-.72-5.45-.57-15.18,2.69-30.83,3.73-46.12,1.3-4.04-.75-8.39-1.8-11.39-4.8-2.65-2.88-.98-7.24,1.27-9.82,4.87-5.64,12.49-7.36,19.4-9.12,4.03,4.41,9.77,7.06,15.77,7.08,10.33.42,22.23-1.98,28.6-10.91ZM209.94,57.02c-6.16,1.44-11.67,4.6-17.15,7.65,11.76-.54,23.49-3.55,33.97-8.92,2.5-.99,2.96-3.75,3.63-6.03-7.2,1.31-13.36,5.6-20.45,7.3ZM225.43,60.33c2.73.11,5.63.47,8.16-.83.07-1.2.04-2.41.03-3.61-2.79,1.37-5.54,2.82-8.19,4.44ZM200.95,82.7c-10.03,1.29-20.16,1.53-30.21,2.66,14.75,2.87,31.01,5.37,45.07-1.45l.08-3.2c-5.02.4-9.97,1.23-14.94,1.99Z"/>
    <path class="st3" d="M191.38,95.22c1.42.14,2.82.38,4.21.73-1.91,1.07-3.98,1.76-6.11,2.25.58-1.03,1.21-2.02,1.9-2.98Z"/>
  </g>
  <g>
    <path class="st2" d="M216.53,164.21c2.06.01,4.12.02,6.19.03-.04,5.76.04,11.53-.04,17.3,3.4-4.47,9.28-6.99,14.78-5.07,10.11,2.5,14.51,15.65,9.24,24.25-3.16,5.83-10.32,9.22-16.8,7.46-2.99-.65-5.11-2.98-7.32-4.9.04,1.49.07,2.98.11,4.47h-6.21c-.02-14.51-.07-29.03.05-43.54ZM229.25,182.26c-8,2.63-9.07,15.09-1.62,19.03,5.74,3.98,14.09-.63,14.82-7.3,1.6-7.22-6.09-14.68-13.2-11.73Z"/>
    <path class="st2" d="M293.78,164.23c2.11.01,4.23.02,6.36.06.02,9-.04,18,.05,27.01,4.75-4.72,9.34-9.6,13.94-14.47,2.7-.01,5.4-.01,8.1,0-3.78,4.38-8.03,8.31-11.94,12.57,4.31,6.19,8.91,12.18,13.29,18.33-2.64.02-5.26.02-7.89.02-3.22-4.71-6.57-9.32-9.77-14.04-1.96,2.02-4.34,3.71-5.85,6.11-.36,2.63-.23,5.29-.25,7.94-2.02,0-4.04,0-6.06.01.02-14.51-.05-29.03.02-43.54Z"/>
    <path class="st2" d="M8.42,164.89c5.83.11,11.68-.33,17.49.25,7.48.7,14.53,5.81,16.91,13.04,3.69,9.49.35,21.93-8.93,26.89-7.77,4.42-16.98,2.16-25.45,2.69-.03-14.29-.04-28.58-.02-42.87ZM14.9,171.19c-.02,10.13-.05,20.27,0,30.41,4.98-.09,10.33.85,14.94-1.51,10.15-4.99,10.1-21.93.22-27.19-4.65-2.52-10.1-1.68-15.16-1.71Z"/>
    <path class="st2" d="M197.93,165.61c2.13-.02,4.26-.03,6.39-.04.01,3.74.02,7.49.03,11.23,1.71,0,3.43,0,5.15.01.02,1.82.04,3.64.07,5.47-1.77,0-3.52.01-5.28.02.1,5.87-.2,11.75.11,17.61.16,2.6,3.34,2.41,5.21,2.86-.06,1.78-.1,3.57-.15,5.36-4.09-.02-9.39-.27-10.87-4.96-1.46-6.83-.33-13.94-.71-20.88l-4.53-.03c.02-1.82.04-3.64.07-5.45,1.49,0,2.99-.01,4.48-.01l.03-11.19Z"/>
    <path class="st2" d="M50.88,185.02c3.71-9.13,16.57-12.03,24.08-5.84,4.67,3.6,6.11,9.72,6.14,15.34-8.57.21-17.15-.05-25.72.19,1.7,4.35,5.41,8.72,10.56,8.15,3.48.42,6.18-2.01,8.65-4.05,1.65,1.03,3.3,2.06,4.95,3.1-4.14,5.2-10.93,8.08-17.52,6.36-10.27-1.56-15.7-14.28-11.14-23.25ZM55.45,189.4c6.45.15,12.89.14,19.34,0-1.62-3.67-4.23-7.83-8.77-7.81-5.11-.77-8.87,3.5-10.57,7.81Z"/>
    <path class="st2" d="M91.08,176.88c5.18-2.52,11.14-.18,14.82,3.82-1.15,1.29-2.29,2.58-3.43,3.87-2.24-1.51-4.62-3.57-7.55-3.02-2.75-.1-3.94,3.71-1.91,5.36,3.51,2.7,8.41,3.23,11.5,6.58,3.6,4.49,1.68,12.13-3.75,14.23-5.64,2.37-12.04.03-16.26-4.02,1.18-1.51,2.36-3.01,3.56-4.5,2.42,1.63,4.78,4.05,7.96,3.68,2.65.4,5.06-2.28,4.17-4.86-3.71-3.99-10.45-3.95-13.27-8.98-1.9-4.29-.52-10.33,4.16-12.16Z"/>
    <path class="st2" d="M113.15,189.76c-3.35-4.97-.15-12.63,5.81-13.58,4.76-1.38,9.33,1.28,12.68,4.43-1.19,1.34-2.39,2.67-3.58,4.01-2.13-1.45-4.33-3.54-7.13-3.1-2.48-.08-4.63,3.18-2.52,5.07,3.69,3.2,9.4,3.48,12.41,7.63,3.17,4.74.7,12.01-4.8,13.67-5.55,2.19-11.63-.29-15.63-4.31,1.14-1.45,2.3-2.88,3.48-4.29,2.65,1.93,5.55,4.33,9.09,3.51,2.69-.06,4.02-3.9,2.07-5.66-3.75-2.77-9.1-3.31-11.88-7.38Z"/>
    <path class="st2" d="M143.09,179.16c6.27-5.09,16.5-4.17,21.6,2.17,3.26,3.57,3.98,8.56,3.95,13.22-8.52.12-17.04,0-25.55.12,1.39,4.33,4.95,8.57,9.92,8.19,3.69.53,6.71-1.75,9.27-4.06,1.62,1.02,3.26,2.03,4.89,3.04-5.23,7.41-16.54,9.18-23.76,3.73-8.49-5.92-8.56-20.24-.32-26.41ZM143.15,189.43c6.35.11,12.71.14,19.07-.03-1.38-4.02-4.54-8.09-9.24-7.86-4.92-.44-8.32,3.71-9.83,7.89Z"/>
    <path class="st2" d="M264.55,176.84c7.45-2.79,16.52.36,20.27,7.46,4.27,7.26,1.66,17.6-5.57,21.93-8.13,5.3-20.56,1.75-24.03-7.5-3.77-8.23.75-18.96,9.33-21.89ZM266.38,182.51c-7.69,3.08-8.25,15.34-.79,19.01,6.18,3.89,14.88-1.44,15.01-8.54.78-7.24-7.46-13.83-14.22-10.47Z"/>
    <path class="st2" d="M335.12,178.23c7-4.54,17.46-2.38,21.67,4.97,2.29,3.3,2.28,7.46,2.6,11.3-8.53.21-17.05.01-25.58.19,1.45,4.37,5.18,8.57,10.18,8.16,3.57.44,6.39-1.98,8.9-4.13,1.66,1.08,3.32,2.15,4.99,3.22-6,8.17-19.56,9.28-26.19,1.36-6.52-7.18-4.95-19.99,3.43-25.07ZM333.93,189.37c6.35.24,12.7.18,19.04.05-1.36-3.9-4.3-8.01-8.9-7.9-4.95-.49-8.71,3.48-10.14,7.85Z"/>
    <path class="st2" d="M371.98,181.08c2.24-2.23,4.71-4.63,8.01-5.01,6.21-1.25,13.35,3.27,13.61,9.88.25,7.27,0,14.55.06,21.82-2.1,0-4.19,0-6.29,0-.15-6.6.1-13.22-.13-19.82.12-3.41-2.77-6.53-6.22-6.44-4.43-.54-8.46,3.39-8.63,7.71-.27,6.18,0,12.36-.11,18.55-2.16-.03-4.31-.04-6.47-.05.04-10.08-.15-20.16.08-30.23,1.75-1.05,3.95-.57,5.9-.84.06,1.47.13,2.94.19,4.42Z"/>
    <path class="st2" d="M175.21,176.83c1.88-.01,3.77-.02,5.65-.02v4.87c2.11-3.3,5.4-5.54,9.39-5.73.06,2.26.09,4.52.11,6.78-3.75.26-8.02,1.7-8.88,5.89-.99,6.3.01,12.78-.59,19.14-1.92,0-3.84.01-5.75.02-.02-10.32-.04-20.63.07-30.95Z"/>
  </g>
</svg>